<?xml version="1.0" encoding="utf-8"?>
<!-- Generator: Adobe Illustrator 16.0.0, SVG Export Plug-In . SVG Version: 6.00 Build 0)  -->
<!DOCTYPE svg PUBLIC "-//W3C//DTD SVG 1.1//EN" "http://www.w3.org/Graphics/SVG/1.1/DTD/svg11.dtd">
<svg version="1.1" id="Layer_1" xmlns="http://www.w3.org/2000/svg" xmlns:xlink="http://www.w3.org/1999/xlink" x="0px" y="0px"
	 width="495.002px" height="495.314px" viewBox="0 0 495.002 495.314" enable-background="new 0 0 495.002 495.314"
	 xml:space="preserve">
<path fill="#FFFFFF" d="M65.725,217.312c2.789-7.663,11.382-11.766,19.16-8.935c6.501,2.366,6.848,6.831,11.776,9.545
	l-10.311,28.327C76.305,242.066,61.035,230.198,65.725,217.312z M100.841,219.443c6.563,1.47,13.352-2.371,15.803-9.104
	l9.887-27.165c2.874-7.896,11.425-11.882,19.318-9.009c7.779,2.831,11.767,11.381,8.893,19.275l-9.888,27.165
	c-8.112,22.29-32.076,33.946-54.324,27.164L100.841,219.443z M135.986,240.518l36.511-36.013l3.629,38.792L157.25,261.93
	c-4.698,4.601-11.38,5.982-16.838,3.996c-8.242-3-11.004-12.026-8.386-19.224C132.83,244.498,134.297,242.27,135.986,240.518z
	 M212.363,275.942c0.804-2.205,1.185-4.695,0.824-7.325l-5.85-61.948c-0.483-6.618-4.642-11.812-10.213-13.84
	c-8.242-3-16.077,1.905-18.697,9.104c-0.844,2.321-1.108,4.855-1.023,7.514l3.365,35.541l-14.496,14.182l16.37,5.958l0.61,6.27
	c0.642,6.544,4.872,11.897,10.328,13.884c8.242,3,16.045-2.181,18.665-9.378L212.363,275.942L212.363,275.942z M195.461,415.198
	L167.25,404.93c3.296-7.609,8.67-14.067,14.973-18.74c5.025-3.693,11.178-2.899,13.848-1.928
	c7.779,2.831,11.725,11.498,8.937,19.159C202.766,409.573,198.09,410.503,195.461,415.198L195.461,415.198z M192.734,463.507
	c-22.058-8.027-33.904-32.191-26.964-54.514l28.21,10.269c-1.277,6.766,2.361,13.743,8.979,16.151
	c6.732,2.451,14.007-0.556,17.26-6.603l28.325,10.31C239.396,460.64,215.023,471.619,192.734,463.507L192.734,463.507z
	 M221.697,424.746c1.005-5.285-2.107-8.653,0.259-15.156c2.789-7.661,11.381-11.766,19.159-8.934
	c4.875,1.773,8.358,5.935,9.485,10.42c0.316,1.298,3.363,11.349-0.577,23.98L221.697,424.746z M247.717,353.262
	c1.511-6.681-2.286-13.585-9.021-16.036c-6.616-2.409-13.849,0.482-17.218,6.486l-28.211-10.269
	c9.147-21.519,33.597-32.34,55.654-24.312c22.289,8.112,33.943,32.075,27.12,54.438L247.717,353.262L247.717,353.262z
	 M218.752,392.022c-22.058-8.028-33.787-32.151-26.963-54.515L220,347.775c-1.279,6.766,2.359,13.744,8.978,16.152
	c6.733,2.451,14.123-0.515,17.26-6.604l28.326,10.311C265.416,389.153,241.041,400.136,218.752,392.022L218.752,392.022z
	 M253.549,209.726c-7.313-2.662-11.271-10.938-8.565-18.369l16.817-46.204c2.662-7.313,11.013-11.11,18.326-8.449
	c7.431,2.704,11.269,10.938,8.606,18.252l-16.816,46.205C269.213,208.59,260.979,212.431,253.549,209.726z M316.848,207.391
	l-37.497-13.647l10.269-28.212l37.497,13.648c7.895,2.874,11.84,11.54,9.009,19.319
	C333.293,206.276,324.742,210.264,316.848,207.391z M360.399,87.732c7.546,2.747,11.84,11.541,9.01,19.319
	c-1.438,3.947-4.615,7.26-8.88,8.864l-12.046,4.556l-68.609-24.972c6.55-17.994,26.574-27.141,44.453-20.633
	c8.241,3,14.615,8.606,18.487,15.67l7.146-2.658C353.592,86.57,357.149,86.549,360.399,87.732z M355.971,143.969
	c2.831-7.779-1.113-16.445-9.009-19.318l-68.61-24.973l-5.154,14.164c-2.83,7.777,1.272,16.37,9.052,19.201l54.446,19.816
	C344.59,155.733,353.141,151.746,355.971,143.969z M304.365,28.208l6.846-18.808c2.662-7.312,11.056-11.226,18.369-8.563
	c7.43,2.704,11.109,11.011,8.447,18.325l-6.846,18.807L304.365,28.208L304.365,28.208z M362.158,82.9l-54.447-19.816
	c-7.778-2.831-11.924-11.309-9.051-19.203l4.184-11.493l82.774,30.127l-4.185,11.493C378.562,81.902,369.937,85.731,362.158,82.9z
	 M335.479,39.533l3.169-8.707c2.07-5.689,8.404-8.644,14.094-6.572c5.688,2.069,8.643,8.404,6.571,14.093l-3.169,8.707
	L335.479,39.533L335.479,39.533z M360.321,48.575l6.847-18.809c2.662-7.312,10.938-11.269,18.252-8.605
	c7.547,2.747,11.228,11.054,8.564,18.366l-6.846,18.808L360.321,48.575L360.321,48.575z M251.679,439.694
	c4.394-12.072,17.653-18.158,29.727-13.764c4.18,1.521,7.589,4.074,10.195,7.391c7.252-8.01,18.833-11.287,29.629-7.357
	c14.214,5.138,21.571,20.825,16.434,35.039c-0.014,0.038-0.027,0.075-0.041,0.113l-3.169,8.705L251.679,439.694L251.679,439.694z
	 M309.472,494.386l-54.446-19.816c-7.778-2.831-11.925-11.308-9.052-19.201l4.185-11.494l82.772,30.129l-4.183,11.492
	C325.875,493.389,317.251,497.218,309.472,494.386L309.472,494.386z M362.203,349.146c7.198,2.62,12.379,10.421,9.379,18.665
	c-1.986,5.456-7.338,9.687-13.884,10.329l-6.271,0.609l-5.958,16.367l-14.181-14.494l-35.539,3.366
	c-2.661,0.084-5.193-0.182-7.517-1.025c-7.196-2.62-12.104-10.453-9.104-18.695c2.028-5.572,7.224-9.73,13.841-10.212l61.949-5.853
	c2.627-0.356,5.119,0.022,7.324,0.825L362.203,349.146L362.203,349.146z M333.006,429.365c7.198,2.62,16.224-0.143,19.224-8.387
	c1.986-5.456,0.605-12.138-3.995-16.836L329.6,385.266l-38.79,3.631l36.015,36.509C328.573,427.094,330.801,428.563,333.006,429.365
	L333.006,429.365z M391.879,223.906c1.396-6.724-2.243-13.7-8.978-16.151c-6.616-2.409-13.891,0.597-17.26,6.603l-28.211-10.268
	c9.031-21.562,33.597-32.341,55.654-24.313c22.289,8.113,33.944,32.076,27.119,54.44L391.879,223.906z M395.225,258.781
	l-54.562-19.859c-7.777-2.831-11.809-11.268-8.935-19.162l4.184-11.492l82.772,30.127l-4.183,11.493
	C411.629,257.781,403.004,261.612,395.225,258.781z M309.45,326.991c-3.83-1.388-6.949-4.245-8.665-7.939
	c-3.585-7.688-0.261-16.822,7.428-20.406l72.434-33.775c7.687-3.586,16.824-0.261,20.406,7.428
	c3.586,7.686,0.261,16.822-7.427,20.405l-72.436,33.776C317.501,328.206,313.276,328.39,309.45,326.991z M373.737,320.21
	l-17.331-6.309l-36.539,17.039l44.119,16.059c7.398,2.692,15.578-1.121,18.271-8.52C384.948,331.081,381.136,322.902,373.737,320.21
	L373.737,320.21z M328.051,271.277l17.33,6.309l36.54-17.039l-44.12-16.06c-7.397-2.691-15.577,1.122-18.271,8.521
	C316.839,260.405,320.652,268.584,328.051,271.277z M223.725,295.79c-3.829-1.388-6.948-4.245-8.665-7.939
	c-3.585-7.687-0.26-16.823,7.427-20.406l72.436-33.776c7.685-3.586,16.824-0.26,20.406,7.427c3.585,7.687,0.26,16.822-7.429,20.406
	l-72.434,33.775C231.777,297.004,227.551,297.189,223.725,295.79z M288.012,289.009l-17.331-6.309l-36.54,17.038l44.12,16.06
	c7.398,2.691,15.578-1.121,18.271-8.521C299.224,299.881,295.409,291.701,288.012,289.009z M242.325,240.075l17.329,6.308
	l36.54-17.039l-44.119-16.059c-7.398-2.692-15.577,1.121-18.271,8.52C231.113,229.203,234.927,237.383,242.325,240.075
	L242.325,240.075z"/>
</svg>
